<svg width="1200" height="628" viewBox="0 0 1200 628" fill="none" xmlns="http://www.w3.org/2000/svg">
<rect width="1200" height="628" fill="white"/>
<g clip-path="url(#clip0_2213_18)">
<path d="M696.875 147H503.125C501.399 147 500 148.399 500 150.125C500 151.851 501.399 153.25 503.125 153.25H696.875C698.601 153.25 700 151.851 700 150.125C700 148.399 698.601 147 696.875 147Z" fill="url(#paint0_linear_2213_18)"/>
<path d="M695.312 163.667H504.688C502.099 163.667 500 165.765 500 168.354V171.479C500 174.068 502.099 176.167 504.688 176.167H695.312C697.901 176.167 700 174.068 700 171.479V168.354C700 165.765 697.901 163.667 695.312 163.667Z" fill="url(#paint1_linear_2213_18)"/>
<path d="M695.312 186.583H504.688C502.099 186.583 500 188.682 500 191.271V206.896C500 209.485 502.099 211.583 504.688 211.583H695.312C697.901 211.583 700 209.485 700 206.896V191.271C700 188.682 697.901 186.583 695.312 186.583Z" fill="url(#paint2_linear_2213_18)"/>
<path d="M695.312 222H504.688C502.099 222 500 224.099 500 226.688V267.312C500 269.901 502.099 272 504.688 272H695.312C697.901 272 700 269.901 700 267.312V226.688C700 224.099 697.901 222 695.312 222Z" fill="url(#paint3_linear_2213_18)"/>
<path d="M695.312 282.417H504.688C502.099 282.417 500 284.515 500 287.104V302.729C500 305.318 502.099 307.417 504.688 307.417H695.312C697.901 307.417 700 305.318 700 302.729V287.104C700 284.515 697.901 282.417 695.312 282.417Z" fill="url(#paint4_linear_2213_18)"/>
<path d="M695.312 317.833H504.688C502.099 317.833 500 319.932 500 322.521V325.646C500 328.235 502.099 330.333 504.688 330.333H695.312C697.901 330.333 700 328.235 700 325.646V322.521C700 319.932 697.901 317.833 695.312 317.833Z" fill="url(#paint5_linear_2213_18)"/>
<path d="M696.875 340.75H503.125C501.399 340.75 500 342.149 500 343.875C500 345.601 501.399 347 503.125 347H696.875C698.601 347 700 345.601 700 343.875C700 342.149 698.601 340.75 696.875 340.75Z" fill="url(#paint6_linear_2213_18)"/>
</g>
<g clip-path="url(#clip1_2213_18)">
<path d="M527.61 379H505.522C502.472 379 500 381.472 500 384.522V406.61C500 409.66 502.472 412.132 505.522 412.132H527.61C530.66 412.132 533.132 409.66 533.132 406.61V384.522C533.132 381.472 530.66 379 527.61 379Z" fill="#E01D3B"/>
<path d="M505.522 384.522L511.044 390.044L516.566 384.522H527.61L522.088 390.044L527.61 395.566H516.566L505.522 406.61V384.522Z" fill="#231F20"/>
<path d="M516.566 384.522H527.61L522.088 390.044L516.566 384.522Z" fill="#F2B7C0"/>
<path d="M522.088 390.044L527.61 395.566H516.566L522.088 390.044Z" fill="#EF879B"/>
<path d="M516.566 384.522L522.088 390.044L516.566 395.566V384.522Z" fill="#F9DBE1"/>
<path d="M511.044 390.044L516.566 384.522V395.566L511.044 390.044Z" fill="#FBD1D9"/>
<path d="M505.522 384.522L511.044 390.044L505.522 395.566V384.522Z" fill="#F2B7C0"/>
<path d="M511.044 390.044L516.566 395.566L505.522 395.566L511.044 390.044Z" fill="#F19EAF"/>
<path d="M516.566 395.566L511.044 401.088L505.522 395.566L516.566 395.566Z" fill="#EF879B"/>
<path d="M511.044 401.088L505.522 406.61V395.566L511.044 401.088Z" fill="#F19EAE"/>
</g>
<path d="M547.083 410.562V380.125H559.091C561.399 380.125 563.366 380.565 564.991 381.447C566.616 382.319 567.854 383.533 568.707 385.088C569.569 386.634 570 388.417 570 390.439C570 392.46 569.564 394.243 568.692 395.789C567.82 397.335 566.557 398.538 564.902 399.4C563.257 400.262 561.266 400.693 558.927 400.693H551.274V395.536H557.887C559.126 395.536 560.146 395.323 560.949 394.897C561.761 394.461 562.365 393.862 562.762 393.099C563.168 392.326 563.371 391.439 563.371 390.439C563.371 389.428 563.168 388.546 562.762 387.793C562.365 387.03 561.761 386.441 560.949 386.025C560.136 385.599 559.106 385.386 557.857 385.386H553.518V410.562H547.083Z" fill="black"/>
<path d="M579.957 410.993C578.501 410.993 577.203 410.74 576.063 410.235C574.924 409.719 574.022 408.962 573.358 407.961C572.704 406.95 572.377 405.692 572.377 404.186C572.377 402.918 572.61 401.853 573.076 400.991C573.542 400.129 574.176 399.435 574.978 398.91C575.781 398.385 576.692 397.988 577.713 397.721C578.743 397.453 579.823 397.265 580.953 397.156C582.28 397.018 583.35 396.889 584.163 396.77C584.975 396.641 585.565 396.453 585.931 396.205C586.298 395.957 586.481 395.591 586.481 395.105V395.016C586.481 394.075 586.184 393.347 585.59 392.831C585.005 392.316 584.173 392.059 583.093 392.059C581.953 392.059 581.047 392.311 580.373 392.817C579.699 393.312 579.254 393.936 579.036 394.689L573.18 394.214C573.477 392.826 574.062 391.628 574.934 390.617C575.806 389.596 576.93 388.814 578.307 388.269C579.694 387.714 581.3 387.437 583.123 387.437C584.391 387.437 585.605 387.585 586.764 387.882C587.933 388.18 588.968 388.64 589.87 389.265C590.781 389.889 591.5 390.691 592.025 391.672C592.55 392.643 592.813 393.807 592.813 395.165V410.562H586.808V407.396H586.63C586.263 408.109 585.773 408.739 585.159 409.284C584.544 409.819 583.806 410.24 582.944 410.547C582.082 410.844 581.086 410.993 579.957 410.993ZM581.77 406.623C582.701 406.623 583.524 406.44 584.237 406.073C584.951 405.697 585.51 405.192 585.917 404.557C586.323 403.923 586.526 403.205 586.526 402.402V399.98C586.328 400.109 586.055 400.228 585.709 400.337C585.372 400.436 584.99 400.53 584.564 400.619C584.138 400.698 583.712 400.773 583.286 400.842C582.86 400.901 582.474 400.956 582.127 401.005C581.384 401.114 580.735 401.288 580.18 401.526C579.625 401.763 579.194 402.085 578.887 402.492C578.58 402.888 578.426 403.383 578.426 403.978C578.426 404.84 578.738 405.499 579.363 405.954C579.997 406.4 580.799 406.623 581.77 406.623Z" fill="black"/>
<path d="M597.724 410.562V387.734H603.862V391.717H604.1C604.516 390.3 605.215 389.23 606.196 388.507C607.177 387.773 608.306 387.407 609.584 387.407C609.901 387.407 610.243 387.427 610.61 387.466C610.976 387.506 611.298 387.56 611.576 387.63V393.248C611.278 393.158 610.867 393.079 610.342 393.01C609.817 392.94 609.336 392.906 608.9 392.906C607.969 392.906 607.137 393.109 606.404 393.515C605.68 393.911 605.106 394.466 604.68 395.18C604.264 395.893 604.056 396.715 604.056 397.647V410.562H597.724Z" fill="black"/>
<path d="M633.842 394.243L628.046 394.6C627.947 394.105 627.734 393.659 627.407 393.262C627.08 392.856 626.649 392.534 626.114 392.296C625.589 392.049 624.96 391.925 624.227 391.925C623.246 391.925 622.419 392.133 621.745 392.549C621.071 392.955 620.734 393.5 620.734 394.184C620.734 394.729 620.952 395.19 621.388 395.566C621.824 395.943 622.572 396.245 623.632 396.473L627.764 397.305C629.983 397.761 631.638 398.494 632.728 399.504C633.818 400.515 634.363 401.843 634.363 403.487C634.363 404.983 633.922 406.296 633.04 407.426C632.168 408.555 630.969 409.437 629.443 410.071C627.927 410.695 626.179 411.007 624.197 411.007C621.175 411.007 618.768 410.378 616.974 409.12C615.191 407.852 614.146 406.128 613.838 403.948L620.065 403.621C620.254 404.543 620.709 405.246 621.433 405.732C622.156 406.207 623.082 406.445 624.212 406.445C625.322 406.445 626.213 406.232 626.887 405.806C627.571 405.37 627.918 404.81 627.927 404.126C627.918 403.552 627.675 403.081 627.199 402.715C626.724 402.338 625.99 402.051 625 401.853L621.046 401.065C618.817 400.619 617.158 399.846 616.068 398.746C614.988 397.647 614.448 396.245 614.448 394.541C614.448 393.074 614.844 391.811 615.637 390.751C616.439 389.691 617.564 388.873 619.01 388.299C620.467 387.724 622.171 387.437 624.123 387.437C627.006 387.437 629.275 388.046 630.93 389.265C632.594 390.483 633.565 392.143 633.842 394.243Z" fill="black"/>
<path d="M648.753 411.007C646.404 411.007 644.383 410.532 642.689 409.581C641.005 408.62 639.707 407.262 638.795 405.509C637.884 403.745 637.428 401.659 637.428 399.252C637.428 396.904 637.884 394.843 638.795 393.069C639.707 391.296 640.99 389.914 642.644 388.923C644.309 387.932 646.261 387.437 648.5 387.437C650.006 387.437 651.408 387.679 652.706 388.165C654.014 388.64 655.153 389.359 656.124 390.32C657.105 391.281 657.868 392.49 658.413 393.946C658.958 395.393 659.23 397.087 659.23 399.029V400.768H639.954V396.844H653.271C653.271 395.933 653.072 395.125 652.676 394.422C652.28 393.718 651.73 393.168 651.026 392.772C650.333 392.366 649.525 392.163 648.604 392.163C647.643 392.163 646.791 392.386 646.048 392.831C645.315 393.267 644.74 393.857 644.324 394.6C643.908 395.333 643.695 396.151 643.685 397.052V400.783C643.685 401.912 643.893 402.888 644.309 403.71C644.735 404.533 645.334 405.167 646.107 405.613C646.88 406.058 647.797 406.281 648.857 406.281C649.56 406.281 650.204 406.182 650.789 405.984C651.373 405.786 651.874 405.489 652.29 405.092C652.706 404.696 653.023 404.211 653.241 403.636L659.096 404.022C658.799 405.429 658.19 406.658 657.268 407.708C656.357 408.748 655.178 409.561 653.731 410.146C652.295 410.72 650.635 411.007 648.753 411.007Z" fill="black"/>
<path d="M663.362 410.562V387.734H669.5V391.717H669.738C670.154 390.3 670.852 389.23 671.833 388.507C672.814 387.773 673.944 387.407 675.222 387.407C675.539 387.407 675.881 387.427 676.247 387.466C676.614 387.506 676.936 387.56 677.213 387.63V393.248C676.916 393.158 676.505 393.079 675.98 393.01C675.454 392.94 674.974 392.906 674.538 392.906C673.607 392.906 672.774 393.109 672.041 393.515C671.318 393.911 670.743 394.466 670.317 395.18C669.901 395.893 669.693 396.715 669.693 397.647V410.562H663.362Z" fill="black"/>
<path d="M699.48 394.243L693.684 394.6C693.585 394.105 693.372 393.659 693.045 393.262C692.718 392.856 692.287 392.534 691.752 392.296C691.227 392.049 690.597 391.925 689.864 391.925C688.883 391.925 688.056 392.133 687.382 392.549C686.709 392.955 686.372 393.5 686.372 394.184C686.372 394.729 686.59 395.19 687.026 395.566C687.462 395.943 688.21 396.245 689.27 396.473L693.401 397.305C695.621 397.761 697.275 398.494 698.365 399.504C699.455 400.515 700 401.843 700 403.487C700 404.983 699.559 406.296 698.677 407.426C697.805 408.555 696.607 409.437 695.081 410.071C693.565 410.695 691.816 411.007 689.835 411.007C686.813 411.007 684.405 410.378 682.612 409.12C680.828 407.852 679.783 406.128 679.476 403.948L685.703 403.621C685.891 404.543 686.347 405.246 687.07 405.732C687.794 406.207 688.72 406.445 689.849 406.445C690.959 406.445 691.851 406.232 692.525 405.806C693.208 405.37 693.555 404.81 693.565 404.126C693.555 403.552 693.312 403.081 692.837 402.715C692.361 402.338 691.628 402.051 690.637 401.853L686.684 401.065C684.455 400.619 682.795 399.846 681.705 398.746C680.625 397.647 680.085 396.245 680.085 394.541C680.085 393.074 680.481 391.811 681.274 390.751C682.077 389.691 683.201 388.873 684.648 388.299C686.104 387.724 687.808 387.437 689.76 387.437C692.643 387.437 694.912 388.046 696.567 389.265C698.232 390.483 699.203 392.143 699.48 394.243Z" fill="black"/>
<rect x="618.531" y="442.564" width="81.0372" height="37.1364" rx="4.75" stroke="black" stroke-width="0.863636"/>
<path fill-rule="evenodd" clip-rule="evenodd" d="M625.925 449.041H648.547C649.054 449.041 649.464 449.447 649.464 449.948V472.316C649.464 472.817 649.054 473.223 648.547 473.223H625.925C625.418 473.223 625.008 472.817 625.008 472.316V449.948C625.008 449.447 625.418 449.041 625.925 449.041ZM638.603 461.906V459.923H629.899V461.906H633.007V470.737H635.48V461.906H638.603ZM639.589 470.504C639.988 470.705 640.46 470.856 641.005 470.956C641.549 471.057 642.124 471.107 642.727 471.107C643.315 471.107 643.874 471.052 644.403 470.941C644.933 470.831 645.397 470.648 645.796 470.394C646.195 470.14 646.51 469.809 646.743 469.399C646.976 468.989 647.092 468.483 647.092 467.879C647.092 467.442 647.026 467.059 646.893 466.729C646.76 466.4 646.568 466.107 646.317 465.851C646.067 465.594 645.766 465.364 645.416 465.161C645.066 464.957 644.671 464.765 644.231 464.584C643.908 464.453 643.619 464.326 643.364 464.203C643.108 464.08 642.891 463.954 642.712 463.826C642.533 463.697 642.395 463.562 642.297 463.418C642.2 463.275 642.152 463.113 642.152 462.932C642.152 462.766 642.195 462.617 642.282 462.483C642.369 462.35 642.492 462.236 642.65 462.14C642.809 462.045 643.003 461.971 643.233 461.918C643.463 461.865 643.719 461.839 644 461.839C644.205 461.839 644.421 461.854 644.649 461.884C644.876 461.914 645.105 461.96 645.335 462.023C645.566 462.086 645.789 462.165 646.007 462.261C646.224 462.356 646.425 462.467 646.609 462.593V460.338C646.235 460.197 645.828 460.093 645.385 460.025C644.943 459.957 644.435 459.923 643.862 459.923C643.279 459.923 642.727 459.985 642.205 460.108C641.684 460.231 641.225 460.423 640.828 460.685C640.432 460.946 640.119 461.279 639.889 461.684C639.658 462.089 639.543 462.573 639.543 463.136C639.543 463.855 639.754 464.468 640.176 464.976C640.598 465.484 641.239 465.913 642.098 466.265C642.436 466.401 642.75 466.534 643.042 466.665C643.333 466.796 643.585 466.932 643.797 467.072C644.009 467.213 644.177 467.366 644.3 467.532C644.422 467.698 644.484 467.887 644.484 468.098C644.484 468.254 644.445 468.398 644.369 468.532C644.292 468.665 644.176 468.78 644.02 468.879C643.864 468.977 643.669 469.053 643.437 469.109C643.204 469.164 642.932 469.191 642.62 469.191C642.088 469.191 641.561 469.1 641.039 468.916C640.518 468.733 640.034 468.457 639.589 468.09V470.504Z" fill="#27609E"/>
<line x1="660.26" y1="449.905" x2="660.26" y2="472.359" stroke="black" stroke-width="0.863636"/>
<path d="M673.6 450.768L672.831 454.613H688.478L687.989 457.096H672.332L671.574 460.94H687.22L686.348 465.324L680.041 467.413L674.576 465.324L674.95 463.423H671.106L670.192 468.036L679.231 471.496L689.652 468.036L691.033 461.096L691.314 459.703L693.091 450.768H673.6Z" fill="black"/>
<defs>
<linearGradient id="paint0_linear_2213_18" x1="600" y1="147" x2="600" y2="347" gradientUnits="userSpaceOnUse">
<stop stop-color="#FF87B2"/>
<stop offset="0.5" stop-color="#FF2F7A"/>
<stop offset="1" stop-color="#FF80AD"/>
</linearGradient>
<linearGradient id="paint1_linear_2213_18" x1="600" y1="147" x2="600" y2="347" gradientUnits="userSpaceOnUse">
<stop stop-color="#FF87B2"/>
<stop offset="0.5" stop-color="#FF2F7A"/>
<stop offset="1" stop-color="#FF80AD"/>
</linearGradient>
<linearGradient id="paint2_linear_2213_18" x1="600" y1="147" x2="600" y2="347" gradientUnits="userSpaceOnUse">
<stop stop-color="#FF87B2"/>
<stop offset="0.5" stop-color="#FF2F7A"/>
<stop offset="1" stop-color="#FF80AD"/>
</linearGradient>
<linearGradient id="paint3_linear_2213_18" x1="600" y1="147" x2="600" y2="347" gradientUnits="userSpaceOnUse">
<stop stop-color="#FF87B2"/>
<stop offset="0.5" stop-color="#FF2F7A"/>
<stop offset="1" stop-color="#FF80AD"/>
</linearGradient>
<linearGradient id="paint4_linear_2213_18" x1="600" y1="147" x2="600" y2="347" gradientUnits="userSpaceOnUse">
<stop stop-color="#FF87B2"/>
<stop offset="0.5" stop-color="#FF2F7A"/>
<stop offset="1" stop-color="#FF80AD"/>
</linearGradient>
<linearGradient id="paint5_linear_2213_18" x1="600" y1="147" x2="600" y2="347" gradientUnits="userSpaceOnUse">
<stop stop-color="#FF87B2"/>
<stop offset="0.5" stop-color="#FF2F7A"/>
<stop offset="1" stop-color="#FF80AD"/>
</linearGradient>
<linearGradient id="paint6_linear_2213_18" x1="600" y1="147" x2="600" y2="347" gradientUnits="userSpaceOnUse">
<stop stop-color="#FF87B2"/>
<stop offset="0.5" stop-color="#FF2F7A"/>
<stop offset="1" stop-color="#FF80AD"/>
</linearGradient>
<clipPath id="clip0_2213_18">
<rect width="200" height="200" fill="white" transform="translate(500 147)"/>
</clipPath>
<clipPath id="clip1_2213_18">
<rect width="33.1321" height="33.1321" fill="white" transform="translate(500 379)"/>
</clipPath>
</defs>
</svg>
