<?xml version="1.0" standalone="no"?>
<!DOCTYPE svg PUBLIC "-//W3C//DTD SVG 20010904//EN"
 "http://www.w3.org/TR/2001/REC-SVG-20010904/DTD/svg10.dtd">
<svg version="1.0" xmlns="http://www.w3.org/2000/svg"
 width="700.000000pt" height="700.000000pt" viewBox="0 0 700.000000 700.000000"
 preserveAspectRatio="xMidYMid meet">
<metadata>
Created by potrace 1.14, written by Peter Selinger 2001-2017
</metadata>
<g transform="translate(0.000000,700.000000) scale(0.100000,-0.100000)"
fill="#000000" stroke="none">
<path d="M65 6991 c-80 -33 -83 -156 -5 -196 26 -13 411 -15 3440 -15 3029 0
3414 2 3440 15 33 17 60 61 60 97 0 33 -36 87 -66 98 -31 12 -6840 13 -6869 1z"/>
<path d="M119 6410 c-46 -14 -78 -41 -99 -86 -19 -38 -21 -58 -18 -142 3 -89
6 -102 30 -134 15 -19 42 -43 62 -52 32 -15 295 -16 3418 -14 l3383 3 33 23
c53 38 72 88 72 188 0 106 -22 161 -78 196 l-37 23 -3370 2 c-1854 1 -3382 -2
-3396 -7z"/>
<path d="M80 5588 c-18 -13 -43 -36 -54 -51 -20 -27 -21 -42 -24 -347 -3 -304
-2 -321 17 -359 11 -22 35 -50 53 -63 l33 -23 3395 0 3395 0 33 23 c18 13 42
41 53 63 19 38 20 55 17 359 -3 305 -4 320 -24 347 -11 15 -36 38 -54 51 l-33
22 -3387 0 -3387 0 -33 -22z"/>
<path d="M80 4348 c-18 -13 -43 -36 -54 -51 -21 -28 -21 -33 -21 -797 0 -761
0 -769 21 -796 29 -40 65 -64 110 -74 52 -13 6676 -13 6728 0 45 10 81 34 110
74 21 27 21 35 21 796 0 764 0 769 -21 797 -11 15 -36 38 -54 51 l-33 22
-3387 0 -3387 0 -33 -22z"/>
<path d="M110 2253 c-35 -14 -72 -47 -91 -84 -19 -38 -20 -55 -17 -359 3 -305
4 -320 24 -347 11 -15 36 -38 54 -50 l33 -23 3387 0 3387 0 33 22 c18 13 43
36 54 51 20 27 21 42 24 347 3 304 2 321 -17 359 -11 22 -35 50 -53 63 l-33
23 -3385 2 c-1862 1 -3392 -1 -3400 -4z"/>
<path d="M92 1003 c-18 -9 -45 -32 -60 -51 -24 -32 -27 -45 -30 -134 -3 -84
-1 -104 18 -143 13 -26 36 -53 58 -67 l37 -23 3386 0 3385 0 37 25 c61 41 79
92 75 208 -3 89 -6 102 -30 134 -15 19 -42 43 -61 52 -32 15 -302 16 -3409 16
-3103 0 -3376 -2 -3406 -17z"/>
<path d="M54 201 c-60 -37 -69 -124 -18 -172 l26 -24 3424 -3 c3768 -2 3465
-7 3499 58 19 37 19 63 0 100 -34 65 267 60 -3487 60 -3321 0 -3414 -1 -3444
-19z"/>
</g>
</svg>
